<mxfile host="app.diagrams.net" modified="2024-05-08T20:28:47.068Z" agent="Mozilla/5.0 (Windows NT 10.0; Win64; x64) AppleWebKit/537.36 (KHTML, like Gecko) Chrome/124.0.0.0 Safari/537.36" etag="GG9utn8ffH5ABWMfJGkl" version="24.3.1" type="device">
  <diagram name="Page-1" id="bPNznnFr0SAlXPTJmb5Y">
    <mxGraphModel dx="871" dy="989" grid="1" gridSize="10" guides="1" tooltips="1" connect="1" arrows="1" fold="1" page="1" pageScale="1" pageWidth="850" pageHeight="1100" math="0" shadow="0">
      <root>
        <mxCell id="0" />
        <mxCell id="1" parent="0" />
        <mxCell id="3NjwAJxftCun13n2x-4W-1" value="Admin" style="swimlane;whiteSpace=wrap;html=1;" vertex="1" parent="1">
          <mxGeometry x="170" y="50" width="260" height="620" as="geometry" />
        </mxCell>
        <mxCell id="3NjwAJxftCun13n2x-4W-22" style="edgeStyle=orthogonalEdgeStyle;rounded=0;orthogonalLoop=1;jettySize=auto;html=1;exitX=0.5;exitY=1;exitDx=0;exitDy=0;exitPerimeter=0;entryX=0.5;entryY=0;entryDx=0;entryDy=0;" edge="1" parent="3NjwAJxftCun13n2x-4W-1" source="3NjwAJxftCun13n2x-4W-4" target="3NjwAJxftCun13n2x-4W-5">
          <mxGeometry relative="1" as="geometry" />
        </mxCell>
        <mxCell id="3NjwAJxftCun13n2x-4W-4" value="" style="strokeWidth=2;html=1;shape=mxgraph.flowchart.start_2;whiteSpace=wrap;fillColor=#000000;" vertex="1" parent="3NjwAJxftCun13n2x-4W-1">
          <mxGeometry x="110" y="50" width="40" height="40" as="geometry" />
        </mxCell>
        <mxCell id="3NjwAJxftCun13n2x-4W-21" style="edgeStyle=orthogonalEdgeStyle;rounded=0;orthogonalLoop=1;jettySize=auto;html=1;exitX=0.5;exitY=1;exitDx=0;exitDy=0;entryX=0.5;entryY=0;entryDx=0;entryDy=0;" edge="1" parent="3NjwAJxftCun13n2x-4W-1" source="3NjwAJxftCun13n2x-4W-5" target="3NjwAJxftCun13n2x-4W-6">
          <mxGeometry relative="1" as="geometry" />
        </mxCell>
        <mxCell id="3NjwAJxftCun13n2x-4W-5" value="Login to system" style="rounded=1;whiteSpace=wrap;html=1;" vertex="1" parent="3NjwAJxftCun13n2x-4W-1">
          <mxGeometry x="80" y="120" width="100" height="40" as="geometry" />
        </mxCell>
        <mxCell id="3NjwAJxftCun13n2x-4W-20" style="edgeStyle=orthogonalEdgeStyle;rounded=0;orthogonalLoop=1;jettySize=auto;html=1;exitX=0.5;exitY=1;exitDx=0;exitDy=0;entryX=0.5;entryY=0;entryDx=0;entryDy=0;" edge="1" parent="3NjwAJxftCun13n2x-4W-1" source="3NjwAJxftCun13n2x-4W-6" target="3NjwAJxftCun13n2x-4W-7">
          <mxGeometry relative="1" as="geometry" />
        </mxCell>
        <mxCell id="3NjwAJxftCun13n2x-4W-6" value="Navigate to user management" style="rounded=1;whiteSpace=wrap;html=1;" vertex="1" parent="3NjwAJxftCun13n2x-4W-1">
          <mxGeometry x="80" y="190" width="100" height="40" as="geometry" />
        </mxCell>
        <mxCell id="3NjwAJxftCun13n2x-4W-19" style="edgeStyle=orthogonalEdgeStyle;rounded=0;orthogonalLoop=1;jettySize=auto;html=1;exitX=0.5;exitY=1;exitDx=0;exitDy=0;entryX=0.5;entryY=0;entryDx=0;entryDy=0;" edge="1" parent="3NjwAJxftCun13n2x-4W-1" source="3NjwAJxftCun13n2x-4W-7" target="3NjwAJxftCun13n2x-4W-8">
          <mxGeometry relative="1" as="geometry" />
        </mxCell>
        <mxCell id="3NjwAJxftCun13n2x-4W-7" value="Initialize search" style="rounded=1;whiteSpace=wrap;html=1;" vertex="1" parent="3NjwAJxftCun13n2x-4W-1">
          <mxGeometry x="80" y="260" width="100" height="40" as="geometry" />
        </mxCell>
        <mxCell id="3NjwAJxftCun13n2x-4W-8" value="Specify filter" style="rounded=1;whiteSpace=wrap;html=1;" vertex="1" parent="3NjwAJxftCun13n2x-4W-1">
          <mxGeometry x="80" y="330" width="100" height="40" as="geometry" />
        </mxCell>
        <mxCell id="3NjwAJxftCun13n2x-4W-2" value="System" style="swimlane;" vertex="1" parent="1">
          <mxGeometry x="430" y="50" width="310" height="620" as="geometry" />
        </mxCell>
        <mxCell id="3NjwAJxftCun13n2x-4W-17" style="edgeStyle=orthogonalEdgeStyle;rounded=0;orthogonalLoop=1;jettySize=auto;html=1;exitX=0.5;exitY=1;exitDx=0;exitDy=0;entryX=0.5;entryY=0;entryDx=0;entryDy=0;" edge="1" parent="3NjwAJxftCun13n2x-4W-2" source="3NjwAJxftCun13n2x-4W-9" target="3NjwAJxftCun13n2x-4W-10">
          <mxGeometry relative="1" as="geometry" />
        </mxCell>
        <mxCell id="3NjwAJxftCun13n2x-4W-9" value="Execute search" style="rounded=1;whiteSpace=wrap;html=1;" vertex="1" parent="3NjwAJxftCun13n2x-4W-2">
          <mxGeometry x="50" y="330" width="100" height="40" as="geometry" />
        </mxCell>
        <mxCell id="3NjwAJxftCun13n2x-4W-14" value="search failed" style="edgeStyle=orthogonalEdgeStyle;rounded=0;orthogonalLoop=1;jettySize=auto;html=1;entryX=0;entryY=0.5;entryDx=0;entryDy=0;" edge="1" parent="3NjwAJxftCun13n2x-4W-2" source="3NjwAJxftCun13n2x-4W-10" target="3NjwAJxftCun13n2x-4W-11">
          <mxGeometry relative="1" as="geometry" />
        </mxCell>
        <mxCell id="3NjwAJxftCun13n2x-4W-15" value="search succeeded" style="edgeStyle=orthogonalEdgeStyle;rounded=0;orthogonalLoop=1;jettySize=auto;html=1;exitX=0.5;exitY=1;exitDx=0;exitDy=0;entryX=0.5;entryY=0;entryDx=0;entryDy=0;" edge="1" parent="3NjwAJxftCun13n2x-4W-2" source="3NjwAJxftCun13n2x-4W-10" target="3NjwAJxftCun13n2x-4W-12">
          <mxGeometry relative="1" as="geometry" />
        </mxCell>
        <mxCell id="3NjwAJxftCun13n2x-4W-10" value="" style="rhombus;whiteSpace=wrap;html=1;" vertex="1" parent="3NjwAJxftCun13n2x-4W-2">
          <mxGeometry x="80" y="400" width="40" height="40" as="geometry" />
        </mxCell>
        <mxCell id="3NjwAJxftCun13n2x-4W-11" value="Display error message" style="rounded=1;whiteSpace=wrap;html=1;" vertex="1" parent="3NjwAJxftCun13n2x-4W-2">
          <mxGeometry x="200" y="400" width="100" height="40" as="geometry" />
        </mxCell>
        <mxCell id="3NjwAJxftCun13n2x-4W-16" style="edgeStyle=orthogonalEdgeStyle;rounded=0;orthogonalLoop=1;jettySize=auto;html=1;exitX=0.5;exitY=1;exitDx=0;exitDy=0;entryX=0.5;entryY=0;entryDx=0;entryDy=0;" edge="1" parent="3NjwAJxftCun13n2x-4W-2" source="3NjwAJxftCun13n2x-4W-12" target="3NjwAJxftCun13n2x-4W-13">
          <mxGeometry relative="1" as="geometry" />
        </mxCell>
        <mxCell id="3NjwAJxftCun13n2x-4W-12" value="Display search results" style="rounded=1;whiteSpace=wrap;html=1;" vertex="1" parent="3NjwAJxftCun13n2x-4W-2">
          <mxGeometry x="50" y="480" width="100" height="40" as="geometry" />
        </mxCell>
        <mxCell id="3NjwAJxftCun13n2x-4W-13" value="" style="ellipse;html=1;shape=endState;fillColor=#000000;strokeColor=#000000;" vertex="1" parent="3NjwAJxftCun13n2x-4W-2">
          <mxGeometry x="85" y="550" width="30" height="30" as="geometry" />
        </mxCell>
        <mxCell id="3NjwAJxftCun13n2x-4W-18" style="edgeStyle=orthogonalEdgeStyle;rounded=0;orthogonalLoop=1;jettySize=auto;html=1;exitX=1;exitY=0.5;exitDx=0;exitDy=0;entryX=0;entryY=0.5;entryDx=0;entryDy=0;" edge="1" parent="1" source="3NjwAJxftCun13n2x-4W-8" target="3NjwAJxftCun13n2x-4W-9">
          <mxGeometry relative="1" as="geometry" />
        </mxCell>
      </root>
    </mxGraphModel>
  </diagram>
</mxfile>
